# xmcd CD database file
#
# Track frame offsets:
#	150
#	45220
#	56417
#	90726
#	120412
#	151303
#	204589
#	225888
#	244301
#	269520
#	292092
#
# Disc length: 4169 seconds
#
# Revision: 0
# Processed by: cddbd v1.5.1PL0 Copyright (c) Steve Scherf et al.
# Submitted via: Feurio! 1.68 - http://www.feurio.com
#
DISCID=8e10470b
DTITLE=Kraftwerk - The Remix
DYEAR=1993
DGENRE=
TTITLE0=Computerwelt (Razormaid Mix)
TTITLE1=Das Model (Razormaid Edit)
TTITLE2=Sex Objekt (Razormaid Mix)
TTITLE3=Pocket Calculator (Mixx-It Remix)
TTITLE4=The Telephone Call (Razormaid Mix)
TTITLE5=The Mix Medley (Razormaid Mix)
TTITLE6=Re-Werked (Mastermix)
TTITLE7=Sex Object (Technopop Demo)
TTITLE8=Tour De France (Disconet-Remix
TTITLE9=Electric cafe (Mixx-it-remix)
TTITLE10=Techno Pop (Demo)
EXTD=
EXTT0=
EXTT1=
EXTT2=
EXTT3=
EXTT4=
EXTT5=
EXTT6=
EXTT7=
EXTT8=
EXTT9=
EXTT10=
PLAYORDER=
